<?xml version="1.0" encoding="utf-8"?>
<!-- Generator: Adobe Illustrator 22.0.1, SVG Export Plug-In . SVG Version: 6.00 Build 0)  -->
<svg version="1.1" id="LOGO" xmlns="http://www.w3.org/2000/svg" xmlns:xlink="http://www.w3.org/1999/xlink" x="0px" y="0px"
	 viewBox="0 0 623.6 212.6" style="enable-background:new 0 0 623.6 212.6;" xml:space="preserve">
<style type="text/css">
	.st0{fill:url(#SVGID_1_);}
	.st1{fill:url(#SVGID_2_);}
	.st2{fill:url(#SVGID_3_);}
	.st3{fill:url(#SVGID_4_);}
	.st4{fill:url(#SVGID_5_);}
	.st5{fill:url(#SVGID_6_);}
	.st6{fill:url(#SVGID_7_);}
	.st7{fill:url(#SVGID_8_);}
	.st8{fill:#FDB927;}
	.st9{fill:#F68B1F;}
	.st10{fill:#120B14;}
	.st11{fill:none;stroke:#000000;stroke-opacity:0;}
</style>
<g>
	<path d="M443.2,94.8c-0.5,1.3-1,2.9-1.1,2.6C441.8,99,441.9,99.4,443.2,94.8z"/>
	<path d="M442.2,97.4C442.1,97.5,442.2,97.4,442.2,97.4c0.1-0.2,0.2-0.5,0.2-0.9C442.3,96.7,442.3,97,442.2,97.4z"/>
	<path d="M419.3,73.8c0,0-0.7,3.4-1.6,6.8c-0.4,1.7-0.9,3.4-1.3,4.7c-0.4,1.3-0.6,2.1-0.6,2.1l1.4-4c0.7-2,1.3-4.1,1.3-4.1
		c-0.7,3.7-3.7,12.2-3.6,13.4c1.8-5.9,4.1-13.6,5.7-21.2c0.8-3.8,1.3-7.7,1.3-11.3c0-1.8-0.2-3.5-1-4.7c-0.3-0.6-1-0.9-1.7-0.7
		c-0.6,0.2-1.1,0.5-1.6,1c0.4-0.3,0.9-0.5,1.4-0.7c0.5-0.1,1.1,0.1,1.4,0.5c0.8,0.9,0.9,2.3,1,3.7c0.1,2.9-0.2,5.9-0.7,8.7
		c-0.5,2.3-1.4,5.8-1.7,6.1C419.1,74.1,419.2,74.1,419.3,73.8z"/>
	<path d="M483.7,141.3c-0.8,0.5-1.5,0.9-2.2,1.3c-1.4,0.8-2.8,1.5-4.6,2.6c0,0,0.5-0.2,1-0.4s1-0.4,1-0.4c-0.9,0.8-1.9,1.6-2.9,2.3
		c-0.7,0.5-1.1,0.8-1.6,1c-0.8,0.5-1.5,1-3.6,2.6l-0.2-1c-1.1,0.9-2.2,1.7-3.5,2.4c-1.2,0.7-2.5,1.2-3.8,1.7l-1.3,1.4
		c-3.8,1.5-6.3,2.4-7.5,2.1l0.5,0.5c-1,0.2-1.9,0.5-2.8,0.8c-1.4,0.3-3,0.8-4.4,1.1c-1.1,0.2-2.2,0.3-3.3,0.3
		c-0.6-0.1-0.6-0.2,0.5-0.6c-0.6,0.2-1.1,0.3-1.7,0.4c-0.3,0.1-0.7,0.1-1.2,0.1c-0.2,0-0.5,0-0.7,0s-0.5-0.1-0.8-0.1l-0.3-0.6
		c-1.6,0-3.2-0.3-4.7-0.8c-0.7-0.3-1.2-0.5-1.7-0.8c-0.4-0.2-0.7-0.4-0.9-0.7c0.5,0.3,1.1,0.5,1.8,0.6c0.3,0,0.7,0,1,0
		c-3.1-1.1-4.4-2.4-5.4-2.9c-0.9-0.6-1.2-0.7-1.5-0.7c-0.2,0-0.4,0-0.5-0.1c-0.1,0-0.3-0.1-0.4-0.2c-0.2-0.1-0.3-0.3-0.4-0.4
		c-0.5-0.5-1-1.1-1.4-1.7c-0.7-1.2-1.3-2.5-1.8-3.8h0.4c0,0-0.4-0.8-0.8-1.6c-0.3-0.9-0.7-1.8-0.7-1.8s0-0.3-0.1-0.6
		c-0.1-0.5-0.1-0.9-0.2-1.4c-0.1-1-0.2-2-0.2-2c-0.2-0.6-0.4-1.2-0.5-1.8c0.7-0.7,1.4-1.4,2-2.2c1-1.2,1.9-2.4,2.7-3.6
		c0.8-1.3,1.6-2.4,2.3-3.7c-0.9,1.3-2.1,2.9-2.1,2.5c1.6-2.4,2.2-3.5,2.7-4c0.4-0.5,0.6-0.6,1-1c1.9-3.9,1.2-3.8,2-6.3
		c1.5-2.7,2.8-5.5,4-8.3c0.5-1.1,0.9-2.1,1.4-3.3c0.5-1.2,1.1-2.6,1.9-4.3l-0.6,0.2c0.8-1.8,1.4-3.6,1.8-5.5c0.5-2,1-3.9,1.7-5.8
		c0.2-0.3-0.3,1.9-0.7,3.6c1.3-4.9,1.7-4.4,2.9-9.2c0,0-0.1,1-0.2,2s-0.3,2-0.3,2c1.1-3.8,2.3-9.7,2.2-7.5c0.5-3.5,1.4-8.3,1.8-13.5
		c0.1-1.3,0.1-2.6,0.1-4.1c-0.1-1.8-0.2-3.7-0.8-5.2c-0.5-1.5-1.3-2.8-2.6-3.3c-1.3-0.4-2.5,0.1-3.6,0.8c0,0,0.1-0.2,0.3-0.5
		c0.1-0.2,0.2-0.3,0.3-0.4c-0.7,0.5-1.4,1-2,1.7c-0.4,0.4-0.8,0.8-1.1,1.3c-0.2,0.2-0.4,0.5-0.6,0.7s-0.4,0.5-0.5,0.7
		c-0.3,0.4-0.6,0.9-0.9,1.3c-0.3,0.4-0.5,0.8-0.8,1.3c-0.5,0.9-1,1.8-1.5,2.6c-1.9,3.6-3.5,7.2-4,9.1l-0.4,0.5c0,0-0.2,0.5-0.5,1.3
		s-0.6,1.9-1,2.9c-0.7,2.1-1.3,4.3-1.3,4.3c-1.5,3.7-1.6,2.2-1.6,2.5c-2.9,8.4-4.6,15.2-6.1,20.8c0.2,0.8-0.2,3.5-0.6,6.9
		c-0.2,1.7-0.4,3.6-0.6,5.6c-0.1,1-0.1,2-0.2,2.9c0,0.5-0.1,1-0.1,1.5s0,1,0,1.4c0,1.1-0.1,2.3-0.1,3.4c0,1,0,2,0.1,3
		c-1.2,1.2-2.6,2.2-4.1,3.1l-1.2,0.6l-0.6,0.3l-0.5,0.2c-0.3,0.1-0.6,0.2-1,0.2c-0.3,0-0.7,0-1,0c-1.5-0.1-2.8-0.6-4-1.5
		c-2.5-1.9-4-5.1-4.6-8.5c-0.1-0.1-0.2-0.1-0.2-0.2c-0.3-2.8-0.5-5.6-0.6-8.4c0.6-1.1,1.4-2.2,2.2-3.2c3.6-6.3,6.7-12.9,9-19.8
		c0.5-1.5,1-3,1.5-4.5c0.5-1.6,1-3.1,1.5-4.8c1-3.3,2-7,3.1-11.2c0.3-1.2,0.5-1.5,0.6-1.6l0,0c0.8-4,1.3-8,1.6-12c0-0.7,0-1.5,0-2.2
		s-0.1-1.3-0.3-1.9c-0.2-0.6-0.6-1.2-1.2-1.1c-0.6,0.1-1.1,0.3-1.5,0.8c-1,1-1.9,2.1-2.7,3.3c-1,1.5-2,3.2-2.9,4.9
		c-1.9,3.6-3.6,7.3-5,11.2c-1.5,4-3.4,9.6-3.8,10.2c0.7-2.8-0.1-0.8,0.5-3.1c-0.9,3-0.6,3.2-0.6,3.7s0,1-0.2,1.4
		c-0.2,0.8-0.5,2.1-1,4.2l-0.6-1.4c0,1.9-0.6,4.5-1.3,7.5c-0.6,3-1.3,6.4-1.3,9.6c-0.6,2.3-0.5-2,0.3-6.8c-1,5.5-0.5,6.1-0.8,10.5
		c0,0,0-0.3-0.1-0.7c-0.1-0.4-0.1-0.9-0.2-1.5l-0.2-2.1c0.2,4.8-0.7,8.5-0.9,11.2c0.2,0.3,0.6-1.8,0.8,2.3c-0.3,0.4-0.5,0.8-0.8,1.2
		c-3.1,4.7-6.8,9-10.9,12.9c-1.9,1.8-4,3.4-6.2,4.8c-0.5,0.3-1.1,0.7-1.6,1s-1.1,0.6-1.6,0.8c-1.1,0.6-2.1,1.1-3.3,1.5
		c-4,1.7-8.2,2.6-12.5,2.7c2.6,0.1,5.7,0.1,9.1-0.7c0.4-0.1,0.8-0.2,1.3-0.3c0.4-0.1,0.8-0.3,1.3-0.4c0.8-0.3,1.7-0.5,2.6-0.8
		c1.7-0.8,3.4-1.4,5-2.4c3.3-1.9,6.3-4.3,9-7.1c0.7-0.6,1.3-1.4,1.9-2c0.6-0.7,1.2-1.3,1.7-2.1c1-1.4,2.1-2.7,2.9-4.1
		c0.1-0.2,0.3-0.3,0.4-0.5c0.1,0.3,0.2,0.9,0.3,1.5c0.2,1.4,0.6,2.7,1,4.1c0.2,0.7,0.5,1.4,0.8,2.1c0.1,0.3,0.3,0.6,0.4,0.9
		c0.2,0.3,0.3,0.5,0.4,0.8c0.2,0.4,0.4,0.8,0.7,1.1c0.2,0.3,0.3,0.4,0.3,0.4c-0.2-0.1,0,0.3,0.3,0.9c0.4,0.6,0.8,1.2,1.2,1.7
		c0.4,0.5,0.7,0.9,0.6,0.9s-0.6-0.3-1.7-1.5c1,1.2,2.1,2.3,3.4,3.1c1.3,0.9,2.8,1.5,4.3,1.8c1.6,0.3,3.2,0.3,4.8-0.1
		c0.4-0.1,0.8-0.2,1.2-0.4c0.4-0.1,0.8-0.3,1.1-0.5l2.1-1.2c0.7-0.5,1.5-1,2.2-1.6c0.6,4.5,2,8.8,4.1,12.7c0.6,1,1.2,1.9,1.8,2.8
		l1.1,1.2c0.3,0.4,0.7,0.8,1.1,1.1c1.5,1.4,3.3,2.5,5.2,3.3c3.7,1.5,7.7,2.1,11.7,1.6c7.8-1,15.2-4.3,21.9-8.3
		c6.8-4.1,13-8.8,18.8-13.7c1.7-1.5,3.7-3.3,5.8-5.3c2-2.1,4.1-4.3,6.1-6.3c-5.3,4.4-5.5,5.3-10.8,9.5
		C485.4,140.2,484.5,140.8,483.7,141.3z M401.2,111.4c0.2-2,0.4-4,0.7-6l-0.4,2l-0.3,2c0-1.3,0.1-2.5,0.3-3.6
		c0.1-1.1,0.2-2.2,0.4-3.2c0.2-1,0.3-2,0.5-3.1s0.4-2.2,0.7-3.5c0,0,0.3-0.7,0.6-1.3l0.6-1.3c0.6-2.7,0.7-3.3,0.6-3.8
		c0-0.4-0.1-0.7,0.3-2.7c0.5-1.2,1-2.7,1.6-4.3c0.6-1.6,1.2-3.4,1.9-5c1.3-3.3,2.6-6.2,3.1-7.3c0.5-0.6,0.3-0.2,0,0.6
		c-0.3,0.8-0.7,1.8-0.8,2.2c1.2-3,1.8-4.3,2.4-5.9c0.3-0.8,0.7-1.6,1.2-2.6c0.3-0.5,0.6-1.1,0.9-1.7c0.2-0.3,0.4-0.6,0.6-1
		c0.2-0.3,0.4-0.6,0.7-1l0.1,0.1l0.2-0.3l0.1-0.2c0.1-0.1,0.2-0.2,0.2-0.4c0.2-0.2,0.4-0.5,0.7-0.5c0.3,0.1,0.4,0.4,0.5,0.7
		c0,0.2,0.1,0.4,0.1,0.5v0.3v0.7c0,0.2,0,0.5,0,0.9l-0.1,1c-0.1,0.7-0.1,1.3-0.2,2c-0.2,1.3-0.4,2.7-0.6,4c-0.5,2.7-1.1,5.5-1.8,8.2
		c-2.8,10.9-6.7,21.5-11.6,31.6c0.2-0.5,0.5-1,1-1.3c-1.4,2.8-2.8,5.6-4.4,8.3C401,114.9,401.1,113.2,401.2,111.4z M404.4,140.1
		c-0.4,0-1.4-0.3-0.5,0.9c-1.3-0.8-2.4-1.8-3.4-3c-1-1.3-1.9-2.7-2.5-4.2c-0.4-0.7-0.6-1.5-0.9-2.2c-0.2-0.7-0.4-1.4-0.6-2.1
		c-0.2-1.1-0.4-2.1-0.6-2.9c0.6-0.7,1.2-1.5,1.8-2.3c0,1.3-0.2,0.5-0.3,1c0.2,0.6,0.4,1.1,0.6,1.7c0.1,0.5,0.3,1.1,0.4,1.8
		c0.2,0.7,0.4,1.5,0.7,2.4c0,0.4-0.3-0.1-0.6-0.8c-0.2-0.6-0.4-1.1-0.7-1.6c0.5,2.4,1.3,4.7,2.4,6.9c1.4,2,1.5,1.7,1.4,1.4
		s-0.4-0.8,0.6,0.2c0.5,0.7,1,1.1,1.4,1.5c0.3,0.2,0.5,0.5,0.7,0.8C404.8,139.9,404.7,140,404.4,140.1L404.4,140.1z M421.7,125.9
		c0.4-6.1,1.6-12.5,2.3-17.3c0.8-3.7,2.5-8.4,4.8-15.2l-0.6,0.2c0.6-1.3,1.4-3.6,2.6-6.3c0.6-1.3,1.2-2.8,1.8-4.3
		c0.7-1.5,1.4-3,2.1-4.5c1.3-2.8,2.9-5.5,4.5-8.2c0.6-1,1.3-2,2.1-2.9c0.2-0.3,0.5-0.6,0.8-0.8c0.2-0.2,0.5-0.4,0.5-0.3
		c0.1-0.8-0.1-0.1-0.4-0.4c0.3-0.6,0.6-1.1,1-1.1c0.4,0.1,0.4,0.6,0.4,0.9s-0.1,0.5-0.2,0.7c0-0.1-0.1,0.5-0.2,0.9
		c-0.1,0.5-0.1,1-0.2,1.7c-0.1,3,0,1.9,0.2,0.4c0.2-1.6,0.2-3.1,0.4-1.7c-0.2,2.3-0.4,4-0.5,5.3c-0.1,1.4-0.2,2.4-0.4,3.6
		c-0.3,2.3-0.5,4.9-2.3,10.8c-0.6,1.1,0.7-3.2,0.7-4.4c-0.7,4.2-2.4,10.4-4.5,16.8s-4.6,12.7-7.5,18.8c-1.8,3.4-3.8,6.7-6,9.8
		c-0.5,0.7-1,1.3-1.6,2C421.5,128.9,421.6,127.4,421.7,125.9L421.7,125.9z"/>
	<path d="M419,74.1C419,74.1,418.9,74.1,419,74.1C418.9,74.1,419,74.1,419,74.1z"/>
	<path d="M412.1,98.4c0,0,0.6-1.6,1.2-3.2c0.3-0.8,0.6-1.6,0.8-2.2l0.3-1c0,0-0.3,0.6-0.5,1.2s-0.5,1.2-0.5,1.2L412.1,98.4z"/>
	<path d="M397.6,104.5c0.1-1.5,0.4-3.4,0.7-5.3c0.3-1.9,0.7-3.9,1-5.3s0.5-2.4,0.5-2.4s-0.2,1-0.6,2.5c-0.3,1.5-0.7,3.6-1,5.7
		c-0.2,1-0.3,2.1-0.5,3c-0.1,1-0.2,1.9-0.3,2.7c-0.1,0.8-0.2,1.4-0.2,1.9s-0.1,0.7-0.1,0.7l0.2-1C397.3,107,397.4,106,397.6,104.5z"
		/>
	<path d="M442.9,98.1l0.9-3.5l-0.4,1c-0.3,1.8-1.2,4.2-1.6,6.1L442.9,98.1z"/>
	<rect x="443.5" y="109.5" width="2" height="2.3"/>
	<rect x="443.5" y="112.8" width="2" height="10.1"/>
	<path d="M459.7,123.1c1.2,0,2.3-0.5,3.1-1.4v1.1h2v-10.1h-2v1.1c-0.8-0.9-1.9-1.4-3.1-1.4c-2.8,0-5.1,2.3-5.1,5.3
		C454.7,120.8,456.9,123.1,459.7,123.1z M459.7,114.5c1.7,0,3,1.5,3,3.3l0,0c0,1.8-1.4,3.3-3,3.3c-1.7,0-3-1.5-3-3.3
		S458,114.5,459.7,114.5z"/>
	<path d="M476.6,116.8c0-1.2,0.9-2.3,2.1-2.3c0.1,0,0.1,0,0.2,0c1.3,0,2.1,0.9,2.1,2.3v6.1h2v-6c0-2.6-1.5-4.3-3.9-4.3
		c-0.9,0-1.9,0.3-2.6,1v-0.7h-2V123h2L476.6,116.8L476.6,116.8z"/>
	<path d="M499.1,117.7v1.1c0,1.3-1,2.3-2.2,2.3c-1.3,0-2.3-1-2.3-2.2l0,0c0,0,0,0,0-0.1v-4.1h6.5v-2h-6.5v-2.1h-2v8.1
		c0,2.4,1.9,4.3,4.3,4.3s4.3-1.9,4.3-4.3v-1.1L499.1,117.7L499.1,117.7z"/>
	<path d="M347.7,116.6c-1.9-0.3-2.2-0.5-2.2-1c0-0.6,0.9-1.1,2-1.1s1.9,0.5,2.1,1.4v0.2h2v-0.3c-0.2-2-1.8-3.2-4.2-3.2
		c-2.8,0-4,1.6-4,3.1c0,2,1.5,2.6,4,2.9c2.4,0.3,2.4,0.8,2.4,1.3c0,0.7-0.8,1.3-2.2,1.3c-1.3,0-2.3-0.6-2.5-1.6v-0.2H343v0.3
		c0.3,2.1,2,3.5,4.5,3.5s4.2-1.4,4.2-3.4C351.8,117.3,349.5,116.9,347.7,116.6z"/>
	<path d="M365.1,123.1c2.4,0,4.3-1.9,4.3-4.3v-1.1h-2v1.1c0,1.3-1,2.3-2.2,2.3c-1.3,0-2.3-1-2.3-2.2l0,0c0,0,0,0,0-0.1v-4.1h6.5v-2
		h-6.5v-2.1h-2v8.1C360.8,121.2,362.7,123.1,365.1,123.1L365.1,123.1z"/>
	<path d="M383.3,123.1c2.2,0.1,4.1-1.3,4.8-3.4l0.1-0.3H386l-0.1,0.1c-0.5,1-1.5,1.7-2.7,1.6c-1.6,0-2.9-1.2-3.1-2.7h8.1v-0.2
		c0.1-1.6-0.5-3.1-1.6-4.2c-0.9-0.9-2.2-1.5-3.5-1.5c-2.9,0.1-5.2,2.6-5.1,5.5C378.2,120.8,380.5,123.1,383.3,123.1z M383.2,114.5
		c1.3,0,2.4,0.9,2.8,2.2h-5.6C380.7,115.4,381.9,114.5,383.2,114.5z"/>
</g>
<g>
	<g>
		
			<linearGradient id="SVGID_1_" gradientUnits="userSpaceOnUse" x1="43.3055" y1="93.9117" x2="43.3055" y2="156.0371" gradientTransform="matrix(1 0 0 -1 0 214)">
			<stop  offset="0" style="stop-color:#000000"/>
			<stop  offset="0.533" style="stop-color:#4D4D4D"/>
			<stop  offset="0.6733" style="stop-color:#737373"/>
			<stop  offset="0.8577" style="stop-color:#A1A1A1"/>
			<stop  offset="0.9505" style="stop-color:#B3B3B3"/>
		</linearGradient>
		<path class="st0" d="M38.8,65.8H19.5V58h47.6v7.8H47.7v54.3h-8.9V65.8z"/>
		
			<linearGradient id="SVGID_2_" gradientUnits="userSpaceOnUse" x1="86.5956" y1="93.9117" x2="86.5956" y2="156.0371" gradientTransform="matrix(1 0 0 -1 0 214)">
			<stop  offset="0" style="stop-color:#000000"/>
			<stop  offset="0.533" style="stop-color:#4D4D4D"/>
			<stop  offset="0.6733" style="stop-color:#737373"/>
			<stop  offset="0.8577" style="stop-color:#A1A1A1"/>
			<stop  offset="0.9505" style="stop-color:#B3B3B3"/>
		</linearGradient>
		<path class="st1" d="M69.2,58h34.8v7.8H78.1v18.1h23.6v7.9H78.1v20.5H104v7.8H69.2V58z"/>
		
			<linearGradient id="SVGID_3_" gradientUnits="userSpaceOnUse" x1="135.453" y1="93.9117" x2="135.453" y2="156.0371" gradientTransform="matrix(1 0 0 -1 0 214)">
			<stop  offset="0" style="stop-color:#000000"/>
			<stop  offset="0.533" style="stop-color:#4D4D4D"/>
			<stop  offset="0.6733" style="stop-color:#737373"/>
			<stop  offset="0.8577" style="stop-color:#A1A1A1"/>
			<stop  offset="0.9505" style="stop-color:#B3B3B3"/>
		</linearGradient>
		<path class="st2" d="M107.9,58h10.7l44.4,62.1h-10.4L107.9,58z"/>
		
			<linearGradient id="SVGID_4_" gradientUnits="userSpaceOnUse" x1="196.5898" y1="93.9117" x2="196.5898" y2="156.0371" gradientTransform="matrix(1 0 0 -1 0 214)">
			<stop  offset="0" style="stop-color:#000000"/>
			<stop  offset="0.533" style="stop-color:#4D4D4D"/>
			<stop  offset="0.6733" style="stop-color:#737373"/>
			<stop  offset="0.8577" style="stop-color:#A1A1A1"/>
			<stop  offset="0.9505" style="stop-color:#B3B3B3"/>
		</linearGradient>
		<path class="st3" d="M192.1,58h9.4l26.2,62.1H218l-6.3-15.6h-30.4l-6.3,15.6h-9.4L192.1,58z M196.4,66.3l-12.4,30.8h24.8
			L196.4,66.3z"/>
		<g>
			
				<linearGradient id="SVGID_5_" gradientUnits="userSpaceOnUse" x1="43.3055" y1="31.6822" x2="43.3055" y2="93.8076" gradientTransform="matrix(1 0 0 -1 0 214)">
				<stop  offset="0.4" style="stop-color:#FFFFFF"/>
				<stop  offset="1" style="stop-color:#4D4D4D"/>
			</linearGradient>
			<path class="st4" d="M38.8,120.2h8.9v54.3h19.4v7.8H19.5v-7.8h19.4v-54.3H38.8z"/>
			
				<linearGradient id="SVGID_6_" gradientUnits="userSpaceOnUse" x1="86.5956" y1="31.6822" x2="86.5956" y2="93.8076" gradientTransform="matrix(1 0 0 -1 0 214)">
				<stop  offset="0.4" style="stop-color:#FFFFFF"/>
				<stop  offset="1" style="stop-color:#4D4D4D"/>
			</linearGradient>
			<path class="st5" d="M69.2,120.2h34.8v7.8H78.1v20.5h23.6v7.8H78.1v18.2H104v7.8H69.2V120.2z"/>
			
				<linearGradient id="SVGID_7_" gradientUnits="userSpaceOnUse" x1="134.4644" y1="31.6822" x2="134.4644" y2="93.8076" gradientTransform="matrix(1 0 0 -1 0 214)">
				<stop  offset="0.4" style="stop-color:#FFFFFF"/>
				<stop  offset="1" style="stop-color:#4D4D4D"/>
			</linearGradient>
			<path class="st6" d="M105.9,120.2h11.4l17,26.3l18.3-26.3H163l-22.2,32.5l20.9,29.7h-10.2l-16.4-23.8l-16.5,23.8h-10.7l20.8-29.9
				L105.9,120.2z"/>
			
				<linearGradient id="SVGID_8_" gradientUnits="userSpaceOnUse" x1="196.7459" y1="31.6822" x2="196.7459" y2="93.8076" gradientTransform="matrix(1 0 0 -1 0 214)">
				<stop  offset="0.4" style="stop-color:#FFFFFF"/>
				<stop  offset="1" style="stop-color:#4D4D4D"/>
			</linearGradient>
			<path class="st7" d="M165.6,120.2h9.4l6.3,15.7h30.5l6.3-15.7h9.7l-26.4,62.1h-9.4L165.6,120.2z M208.8,143.2h-24.8l12.4,30.8
				L208.8,143.2z"/>
		</g>
		<polygon class="st8" points="188,21.3 117.1,120.3 105.9,120.3 176.6,21.3 		"/>
	</g>
	<polygon class="st9" points="204.3,190.4 37.5,190.4 37.5,185.2 209,185.2 	"/>
	<g>
		<path class="st10" d="M38.9,157.2h6.8v2.9h-4.4v5.2h4.2v2.9h-4.2v5.8h4.6v2.9H39v-19.8H38.9z"/>
		<path class="st10" d="M52.4,169.5l-2.6,7.3h-2.6l3.9-10.4l-3.3-9.3h2.7l2,6.3l2.4-6.3h2.5l-3.4,9.3l3.7,10.4h-2.7L52.4,169.5z"/>
		<path class="st10" d="M59,157.2h3.6c2.6,0,4.1,2.3,4.1,5.9c0,3.7-1.4,6-4.1,6h-1.4v7.7h-2.4v-19.7H59z M62.2,166.4
			c1.5,0,2.1-1.1,2.1-3.2s-0.6-3.2-2.1-3.2h-0.8v6.5L62.2,166.4L62.2,166.4z"/>
		<path class="st10" d="M68.3,157.2h6.8v2.9h-4.4v5.2h4.2v2.9h-4.2v5.8h4.6v2.9h-6.9v-19.8H68.3z"/>
		<path class="st10" d="M77.4,157.2h4c2.3,0,3.9,1.6,3.9,5.2c0,2.6-1,4.3-2.5,4.6v0.1c0.5,0.1,1,0.4,1.5,2.3l1.7,7.5h-2.5l-1.2-6.3
			c-0.3-1.6-0.9-2.1-1.8-2.1h-0.5v8.4h-2.4V157.2z M80.7,165.8c1.2,0,2.1-0.9,2.1-3c0-2.3-0.7-2.8-2.1-2.8h-0.9v5.8L80.7,165.8
			L80.7,165.8z"/>
		<path class="st10" d="M89.5,160.2h-2.8v-2.9h8v2.9h-2.8v16.8h-2.4V160.2z"/>
		<path class="st10" d="M96.3,157.2h2.4v19.7h-2.4V157.2z"/>
		<path class="st10" d="M101.2,173.1c0.4,0.4,1.5,1.2,2.7,1.2c1,0,2-0.8,2-2.8c0-1.5-0.5-2-1.7-3l-1.1-1c-1.2-1-2.1-2.6-2.1-5.2
			c0-3.5,1.9-5.3,4.1-5.3c1.4,0,2.3,0.5,2.7,0.7l-0.1,3c-0.5-0.3-1.4-0.8-2.4-0.8c-1.1,0-1.8,0.9-1.8,2.3c0,1.5,0.6,2,1.4,2.6
			l1.4,1.1c1.5,1.2,2.2,2.5,2.2,5.3c0,4-1.9,5.9-4.3,5.9c-1.2,0-2.3-0.3-2.9-0.8L101.2,173.1z"/>
		<path class="st10" d="M110.5,157.2h6.8v2.9h-4.4v5.2h4.2v2.9h-4.2v5.8h4.6v2.9h-7V157.2z"/>
		<path class="st10" d="M119.2,173.1c0.4,0.4,1.5,1.2,2.7,1.2c1,0,2-0.8,2-2.8c0-1.5-0.5-2-1.7-3l-1.1-1c-1.2-1-2.1-2.6-2.1-5.2
			c0-3.5,1.9-5.3,4.1-5.3c1.4,0,2.3,0.5,2.7,0.7l-0.1,3c-0.5-0.3-1.4-0.8-2.4-0.8c-1.1,0-1.8,0.9-1.8,2.3c0,1.5,0.6,2,1.4,2.6
			l1.4,1.1c1.5,1.2,2.2,2.5,2.2,5.3c0,4-1.9,5.9-4.3,5.9c-1.2,0-2.3-0.3-2.9-0.8L119.2,173.1z"/>
	</g>
	<rect x="-0.1" class="st11" width="248" height="212.6"/>
</g>
<g>
	
		<rect x="198.5" y="104.9" transform="matrix(9.144760e-03 -1 1 9.144760e-03 174.5327 387.9036)" class="st10" width="169.1" height="2"/>
</g>
</svg>
